2.2Hzlow3min_grf.mot
version=1
nRows=22
nColumns 19
inDegrees=yes
endheader
time	1_ground_force_vx	1_ground_force_vy	1_ground_force_vz	1_ground_force_px	1_ground_force_py	1_ground_force_pz	1_ground_torque_x	1_ground_torque_y	1_ground_torque_z	2_ground_force_vx	2_ground_force_vy	2_ground_force_vz	2_ground_force_px	2_ground_force_py	2_ground_force_pz	2_ground_torque_x	2_ground_torque_y	2_ground_torque_z
            2.502500	            0.232122	            2.157531	            1.338528	           -0.233013	            0.005581	           -0.255695	            0.261379	           -0.231365	            0.120844	            0.323071	            1.292063	           -0.511749	           -0.232311	            0.006130	           -0.833667	           -0.225004	           -0.132681	           -0.132328
            2.503000	           -0.592969	            1.075974	            1.290082	           -0.233013	            0.005581	           -0.255695	            0.207404	           -0.296058	           -0.008436	            0.469561	           -0.364429	           -0.611579	           -0.232311	            0.006130	           -0.833667	           -0.206500	           -0.056924	           -0.150916
            2.503500	           -0.595913	            1.621686	            0.146003	           -0.233013	            0.005581	           -0.255695	            0.293604	           -0.194646	            0.048160	            0.046562	            0.002512	           -0.657013	           -0.232311	            0.006130	           -0.833667	           -0.282127	            0.066025	           -0.244697
            2.504000	           -0.322303	            1.444029	           -0.451579	           -0.233013	            0.005581	           -0.255695	            0.168982	            0.110387	            0.080310	            0.003076	           -0.918733	           -0.566423	           -0.232311	            0.006130	           -0.833667	           -0.207106	            0.113157	           -0.131459
            2.504500	            0.227765	            1.083801	           -0.500346	           -0.233013	            0.005581	           -0.255695	            0.171106	            0.258694	            0.066814	            0.512444	            0.740462	           -0.560728	           -0.232311	            0.006130	           -0.833667	           -0.319511	            0.027676	           -0.131714
            2.505000	            1.053754	            0.361718	           -0.230351	           -0.233013	            0.005581	           -0.255695	            0.197248	            0.194787	            0.007695	            0.420779	            0.187344	           -0.468803	           -0.232311	            0.006130	           -0.833667	           -0.318990	           -0.123366	           -0.188805
            2.505500	            1.330501	            1.079688	            0.505753	           -0.233013	            0.005581	           -0.255695	            0.428565	           -0.027179	            0.093064	            0.376587	           -0.549418	           -0.471412	           -0.232311	            0.006130	           -0.833667	           -0.243729	           -0.160771	           -0.226672
            2.506000	            0.690341	            1.437147	            1.196731	           -0.233013	            0.005581	           -0.255695	            0.154851	           -0.267670	            0.027738	            0.421443	            0.003196	           -0.469460	           -0.232311	            0.006130	           -0.833667	           -0.337672	           -0.160976	           -0.264332
            2.506500	            0.185970	            1.977846	            1.200301	           -0.233013	            0.005581	           -0.255695	            0.342047	           -0.360058	           -0.051039	           -0.091268	           -0.735091	           -0.518798	           -0.232311	            0.006130	           -0.833667	           -0.262976	           -0.019452	           -0.113057
            2.507000	           -0.319196	            1.258455	            0.785758	           -0.233013	            0.005581	           -0.255695	            0.210018	           -0.101837	            0.004112	           -0.048549	            0.371140	           -0.843372	           -0.232311	            0.006130	           -0.833667	           -0.300913	            0.075141	           -0.169254
            2.507500	           -0.550541	            1.081881	           -0.085709	           -0.233013	            0.005581	           -0.255695	            0.285024	            0.221076	            0.108332	            0.043945	            0.738771	           -0.560529	           -0.232311	            0.006130	           -0.833667	           -0.282485	            0.169871	           -0.206625
            2.508000	            0.089877	            1.805230	           -0.588625	           -0.233013	            0.005581	           -0.255695	            0.230802	            0.295694	            0.042136	            0.282017	           -0.363934	           -0.939996	           -0.232311	            0.006130	           -0.833667	           -0.300563	           -0.019453	           -0.150741
            2.508500	            0.181841	            0.903723	           -0.546861	           -0.233013	            0.005581	           -0.255695	            0.154362	            0.212532	            0.045911	            0.469561	           -0.364429	           -0.611579	           -0.232311	            0.006130	           -0.833667	           -0.281598	           -0.075899	           -0.207502
            2.509000	            0.595582	            1.442437	           -0.041151	           -0.233013	            0.005581	           -0.255695	            0.207753	           -0.157067	            0.080565	            0.513129	            0.556147	           -0.514457	           -0.232311	            0.006130	           -0.833667	           -0.224936	           -0.151586	           -0.132395
            2.509500	            0.643684	            2.159380	            0.924801	           -0.233013	            0.005581	           -0.255695	            0.241217	           -0.350875	            0.025186	            0.516370	           -0.363925	           -0.705455	           -0.232311	            0.006130	           -0.833667	           -0.243738	           -0.151520	           -0.170088
            2.510000	            0.553642	            1.255478	            1.517291	           -0.233013	            0.005581	           -0.255695	            0.310174	           -0.304585	            0.002538	            0.185118	            0.555465	           -0.655102	           -0.232311	            0.006130	           -0.833667	           -0.281600	           -0.057532	           -0.056633
            2.510500	            0.277836	            1.617136	            1.244384	           -0.233013	            0.005581	           -0.255695	            0.227640	           -0.027274	           -0.045406	           -0.049152	            0.554786	           -0.701930	           -0.232311	            0.006130	           -0.833667	           -0.282180	            0.103164	           -0.056060
            2.511000	            0.093391	            1.258535	            0.784734	           -0.233013	            0.005581	           -0.255695	            0.303626	            0.240780	           -0.071049	           -0.094755	            0.186990	           -0.890937	           -0.232311	            0.006130	           -0.833667	           -0.281991	            0.037398	           -0.169397
            2.511500	            0.044783	            1.443510	           -0.314921	           -0.233013	            0.005581	           -0.255695	            0.163071	            0.313995	            0.078037	           -0.046535	           -0.181472	           -0.798415	           -0.232311	            0.006130	           -0.833667	           -0.281769	           -0.028636	           -0.207334
            2.512000	            0.181059	            1.445700	           -0.819678	           -0.233013	            0.005581	           -0.255695	            0.184392	            0.138822	           -0.010893	            0.420114	            0.371493	           -0.468146	           -0.232311	            0.006130	           -0.833667	           -0.187528	           -0.104255	           -0.113392
            2.512500	            0.502904	            1.263923	           -0.454400	           -0.233013	            0.005581	           -0.255695	            0.206458	           -0.193695	           -0.017482	            0.657687	           -0.548403	           -0.471531	           -0.232311	            0.006130	           -0.833667	           -0.243703	           -0.170156	           -0.245556
            2.513000	            0.458589	            1.621693	            0.189243	           -0.233013	            0.005581	           -0.255695	            0.235421	           -0.323498	            0.073912	            0.748708	            0.188696	           -0.515871	           -0.232311	            0.006130	           -0.833667	           -0.300273	           -0.104393	           -0.188745
